# Blender v2.80 (sub 75) OBJ File: 'Background_Lobby_Frames1.blend'
# www.blender.org
mtllib Background_Lobby_Frames3.mtl
o Plane
v -8.144589 0.502974 28.913166
v 41.045605 0.000000 28.913166
v -8.144589 0.502974 -28.913166
v 41.045605 0.000000 -28.913166
v -8.604305 34.398289 28.913166
v -8.604305 34.398289 -28.913166
v -7.073512 0.000000 28.913166
v -7.073512 0.000000 -28.913166
v -8.604305 1.537031 28.913166
v -8.604305 1.537031 -28.913166
v -8.463388 1.008787 28.913166
v -8.463388 1.008787 -28.913166
v -7.684062 0.198465 -28.913166
v -7.684062 0.198465 28.913166
vt 0.000127 0.994295
vt 0.934461 0.994296
vt 0.934462 0.252771
vt 0.000128 0.252771
vt 0.000127 0.851347
vt 0.000128 0.000127
vt 0.934462 0.000128
vt 0.934461 0.851348
vt 0.000127 0.887106
vt 0.934461 0.887106
vt 0.000127 0.957795
vt 0.934461 0.957794
vt 0.000127 0.919486
vt 0.934461 0.919486
vn 0.9915 0.1299 0.0000
vn 1.0000 0.0000 0.0000
vn 0.1565 0.9877 0.0000
vn 0.0000 1.0000 0.0000
vn 0.4343 0.9008 0.0000
vn 0.9165 0.4000 0.0000
vn 0.7148 0.6993 0.0000
g Plane_Plane_Material.001
usemtl Material.001
s 1
f 9/1/1 10/2/1 6/3/2 5/4/2
g Plane_Plane_Material.002
usemtl Material.002
f 7/5/3 2/6/4 4/7/4 8/8/3
g Plane_Plane_Material.003
usemtl Material.003
f 14/9/5 7/5/3 8/8/3 13/10/5
f 11/11/6 12/12/6 10/2/1 9/1/1
f 1/13/7 3/14/7 12/12/6 11/11/6
f 1/13/7 14/9/5 13/10/5 3/14/7
